<svg xmlns="http://www.w3.org/2000/svg" viewBox="0 0 100 100" preserveAspectRatio="xMidYMid" width="148" height="148" style="shape-rendering: auto; display: block; background: transparent;" xmlns:xlink="http://www.w3.org/1999/xlink"><g><g transform="rotate(0 50 50)">
  <rect fill="#fe718d" height="30" width="1" ry="0" rx="0" y="6" x="49.5">
    <animate repeatCount="indefinite" begin="-0.9183673469387754s" dur="0.9523809523809523s" keyTimes="0;1" values="1;0" attributeName="opacity"></animate>
  </rect>
</g><g transform="rotate(12.857142857142858 50 50)">
  <rect fill="#fe718d" height="30" width="1" ry="0" rx="0" y="6" x="49.5">
    <animate repeatCount="indefinite" begin="-0.8843537414965986s" dur="0.9523809523809523s" keyTimes="0;1" values="1;0" attributeName="opacity"></animate>
  </rect>
</g><g transform="rotate(25.714285714285715 50 50)">
  <rect fill="#fe718d" height="30" width="1" ry="0" rx="0" y="6" x="49.5">
    <animate repeatCount="indefinite" begin="-0.8503401360544217s" dur="0.9523809523809523s" keyTimes="0;1" values="1;0" attributeName="opacity"></animate>
  </rect>
</g><g transform="rotate(38.57142857142857 50 50)">
  <rect fill="#fe718d" height="30" width="1" ry="0" rx="0" y="6" x="49.5">
    <animate repeatCount="indefinite" begin="-0.8163265306122448s" dur="0.9523809523809523s" keyTimes="0;1" values="1;0" attributeName="opacity"></animate>
  </rect>
</g><g transform="rotate(51.42857142857143 50 50)">
  <rect fill="#fe718d" height="30" width="1" ry="0" rx="0" y="6" x="49.5">
    <animate repeatCount="indefinite" begin="-0.782312925170068s" dur="0.9523809523809523s" keyTimes="0;1" values="1;0" attributeName="opacity"></animate>
  </rect>
</g><g transform="rotate(64.28571428571429 50 50)">
  <rect fill="#fe718d" height="30" width="1" ry="0" rx="0" y="6" x="49.5">
    <animate repeatCount="indefinite" begin="-0.7482993197278911s" dur="0.9523809523809523s" keyTimes="0;1" values="1;0" attributeName="opacity"></animate>
  </rect>
</g><g transform="rotate(77.14285714285714 50 50)">
  <rect fill="#fe718d" height="30" width="1" ry="0" rx="0" y="6" x="49.5">
    <animate repeatCount="indefinite" begin="-0.7142857142857142s" dur="0.9523809523809523s" keyTimes="0;1" values="1;0" attributeName="opacity"></animate>
  </rect>
</g><g transform="rotate(90 50 50)">
  <rect fill="#fe718d" height="30" width="1" ry="0" rx="0" y="6" x="49.5">
    <animate repeatCount="indefinite" begin="-0.6802721088435374s" dur="0.9523809523809523s" keyTimes="0;1" values="1;0" attributeName="opacity"></animate>
  </rect>
</g><g transform="rotate(102.85714285714286 50 50)">
  <rect fill="#fe718d" height="30" width="1" ry="0" rx="0" y="6" x="49.5">
    <animate repeatCount="indefinite" begin="-0.6462585034013605s" dur="0.9523809523809523s" keyTimes="0;1" values="1;0" attributeName="opacity"></animate>
  </rect>
</g><g transform="rotate(115.71428571428571 50 50)">
  <rect fill="#fe718d" height="30" width="1" ry="0" rx="0" y="6" x="49.5">
    <animate repeatCount="indefinite" begin="-0.6122448979591836s" dur="0.9523809523809523s" keyTimes="0;1" values="1;0" attributeName="opacity"></animate>
  </rect>
</g><g transform="rotate(128.57142857142858 50 50)">
  <rect fill="#fe718d" height="30" width="1" ry="0" rx="0" y="6" x="49.5">
    <animate repeatCount="indefinite" begin="-0.5782312925170068s" dur="0.9523809523809523s" keyTimes="0;1" values="1;0" attributeName="opacity"></animate>
  </rect>
</g><g transform="rotate(141.42857142857142 50 50)">
  <rect fill="#fe718d" height="30" width="1" ry="0" rx="0" y="6" x="49.5">
    <animate repeatCount="indefinite" begin="-0.5442176870748299s" dur="0.9523809523809523s" keyTimes="0;1" values="1;0" attributeName="opacity"></animate>
  </rect>
</g><g transform="rotate(154.28571428571428 50 50)">
  <rect fill="#fe718d" height="30" width="1" ry="0" rx="0" y="6" x="49.5">
    <animate repeatCount="indefinite" begin="-0.5102040816326531s" dur="0.9523809523809523s" keyTimes="0;1" values="1;0" attributeName="opacity"></animate>
  </rect>
</g><g transform="rotate(167.14285714285714 50 50)">
  <rect fill="#fe718d" height="30" width="1" ry="0" rx="0" y="6" x="49.5">
    <animate repeatCount="indefinite" begin="-0.47619047619047616s" dur="0.9523809523809523s" keyTimes="0;1" values="1;0" attributeName="opacity"></animate>
  </rect>
</g><g transform="rotate(180 50 50)">
  <rect fill="#fe718d" height="30" width="1" ry="0" rx="0" y="6" x="49.5">
    <animate repeatCount="indefinite" begin="-0.4421768707482993s" dur="0.9523809523809523s" keyTimes="0;1" values="1;0" attributeName="opacity"></animate>
  </rect>
</g><g transform="rotate(192.85714285714286 50 50)">
  <rect fill="#fe718d" height="30" width="1" ry="0" rx="0" y="6" x="49.5">
    <animate repeatCount="indefinite" begin="-0.4081632653061224s" dur="0.9523809523809523s" keyTimes="0;1" values="1;0" attributeName="opacity"></animate>
  </rect>
</g><g transform="rotate(205.71428571428572 50 50)">
  <rect fill="#fe718d" height="30" width="1" ry="0" rx="0" y="6" x="49.5">
    <animate repeatCount="indefinite" begin="-0.37414965986394555s" dur="0.9523809523809523s" keyTimes="0;1" values="1;0" attributeName="opacity"></animate>
  </rect>
</g><g transform="rotate(218.57142857142858 50 50)">
  <rect fill="#fe718d" height="30" width="1" ry="0" rx="0" y="6" x="49.5">
    <animate repeatCount="indefinite" begin="-0.3401360544217687s" dur="0.9523809523809523s" keyTimes="0;1" values="1;0" attributeName="opacity"></animate>
  </rect>
</g><g transform="rotate(231.42857142857142 50 50)">
  <rect fill="#fe718d" height="30" width="1" ry="0" rx="0" y="6" x="49.5">
    <animate repeatCount="indefinite" begin="-0.3061224489795918s" dur="0.9523809523809523s" keyTimes="0;1" values="1;0" attributeName="opacity"></animate>
  </rect>
</g><g transform="rotate(244.28571428571428 50 50)">
  <rect fill="#fe718d" height="30" width="1" ry="0" rx="0" y="6" x="49.5">
    <animate repeatCount="indefinite" begin="-0.27210884353741494s" dur="0.9523809523809523s" keyTimes="0;1" values="1;0" attributeName="opacity"></animate>
  </rect>
</g><g transform="rotate(257.14285714285717 50 50)">
  <rect fill="#fe718d" height="30" width="1" ry="0" rx="0" y="6" x="49.5">
    <animate repeatCount="indefinite" begin="-0.23809523809523808s" dur="0.9523809523809523s" keyTimes="0;1" values="1;0" attributeName="opacity"></animate>
  </rect>
</g><g transform="rotate(270 50 50)">
  <rect fill="#fe718d" height="30" width="1" ry="0" rx="0" y="6" x="49.5">
    <animate repeatCount="indefinite" begin="-0.2040816326530612s" dur="0.9523809523809523s" keyTimes="0;1" values="1;0" attributeName="opacity"></animate>
  </rect>
</g><g transform="rotate(282.85714285714283 50 50)">
  <rect fill="#fe718d" height="30" width="1" ry="0" rx="0" y="6" x="49.5">
    <animate repeatCount="indefinite" begin="-0.17006802721088435s" dur="0.9523809523809523s" keyTimes="0;1" values="1;0" attributeName="opacity"></animate>
  </rect>
</g><g transform="rotate(295.7142857142857 50 50)">
  <rect fill="#fe718d" height="30" width="1" ry="0" rx="0" y="6" x="49.5">
    <animate repeatCount="indefinite" begin="-0.13605442176870747s" dur="0.9523809523809523s" keyTimes="0;1" values="1;0" attributeName="opacity"></animate>
  </rect>
</g><g transform="rotate(308.57142857142856 50 50)">
  <rect fill="#fe718d" height="30" width="1" ry="0" rx="0" y="6" x="49.5">
    <animate repeatCount="indefinite" begin="-0.1020408163265306s" dur="0.9523809523809523s" keyTimes="0;1" values="1;0" attributeName="opacity"></animate>
  </rect>
</g><g transform="rotate(321.42857142857144 50 50)">
  <rect fill="#fe718d" height="30" width="1" ry="0" rx="0" y="6" x="49.5">
    <animate repeatCount="indefinite" begin="-0.06802721088435373s" dur="0.9523809523809523s" keyTimes="0;1" values="1;0" attributeName="opacity"></animate>
  </rect>
</g><g transform="rotate(334.2857142857143 50 50)">
  <rect fill="#fe718d" height="30" width="1" ry="0" rx="0" y="6" x="49.5">
    <animate repeatCount="indefinite" begin="-0.03401360544217687s" dur="0.9523809523809523s" keyTimes="0;1" values="1;0" attributeName="opacity"></animate>
  </rect>
</g><g transform="rotate(347.14285714285717 50 50)">
  <rect fill="#fe718d" height="30" width="1" ry="0" rx="0" y="6" x="49.5">
    <animate repeatCount="indefinite" begin="0s" dur="0.9523809523809523s" keyTimes="0;1" values="1;0" attributeName="opacity"></animate>
  </rect>
</g><g></g></g><!-- [ldio] generated by https://loading.io --></svg>